{
  "accessors": [
    {
      "bufferView": 2,
      "componentType": 5126,
      "count": 1188,
      "max": [
        0.8608127236366272,
        0.8594392538070679,
        2.015516757965088
      ],
      "min": [
        -1.1796854734420776,
        -0.8601248264312744,
        0.01551675796508789
      ],
      "type": "VEC3"
    },
    {
      "bufferView": 2,
      "byteOffset": 14256,
      "componentType": 5126,
      "count": 1188,
      "max": [
        0.999395489692688,
        0.9998642802238464,
        1.0
      ],
      "min": [
        -0.998908519744873,
        -0.9999848008155823,
        -1.0
      ],
      "type": "VEC3"
    },
    {
      "bufferView": 3,
      "componentType": 5126,
      "count": 1188,
      "max": [
        0.9999996423721313,
        1.0,
        0.9998636841773987,
        1.0
      ],
      "min": [
        -1.0,
        -1.0,
        -0.9999847412109375,
        -1.0
      ],
      "type": "VEC4"
    },
    {
      "bufferView": 1,
      "componentType": 5126,
      "count": 1188,
      "max": [
        1.0,
        0.9972304105758667
      ],
      "min": [
        -1.4388855384961374e-10,
        -1.5322109803150852e-08
      ],
      "type": "VEC2"
    },
    {
      "bufferView": 1,
      "byteOffset": 9504,
      "componentType": 5126,
      "count": 1188,
      "max": [
        1.0,
        0.9972304105758667
      ],
      "min": [
        -1.4388855384961374e-10,
        -1.5322109803150852e-08
      ],
      "type": "VEC2"
    },
    {
      "bufferView": 0,
      "componentType": 5125,
      "count": 3102,
      "type": "SCALAR"
    },
    {
      "bufferView": 2,
      "byteOffset": 28512,
      "componentType": 5126,
      "count": 472,
      "max": [
        0.8608127236366272,
        0.8573536276817322,
        1.77422297000885
      ],
      "min": [
        -0.8566652536392212,
        -0.8601248264312744,
        0.3615264296531677
      ],
      "type": "VEC3"
    },
    {
      "bufferView": 2,
      "byteOffset": 34176,
      "componentType": 5126,
      "count": 472,
      "max": [
        0.9988471269607544,
        0.9980923533439636,
        0.9550610780715942
      ],
      "min": [
        -0.9979197382926941,
        -0.9987119436264038,
        -0.9989214539527893
      ],
      "type": "VEC3"
    },
    {
      "bufferView": 1,
      "byteOffset": 19008,
      "componentType": 5126,
      "count": 472,
      "max": [
        0.9521447420120239,
        0.8758937120437622
      ],
      "min": [
        -1.2097130408506018e-08,
        -9.675495959982072e-09
      ],
      "type": "VEC2"
    },
    {
      "bufferView": 1,
      "byteOffset": 22784,
      "componentType": 5126,
      "count": 472,
      "max": [
        0.9521447420120239,
        0.8758937120437622
      ],
      "min": [
        -1.2097130408506018e-08,
        -9.675495959982072e-09
      ],
      "type": "VEC2"
    },
    {
      "bufferView": 0,
      "byteOffset": 12408,
      "componentType": 5125,
      "count": 1344,
      "type": "SCALAR"
    }
  ],
  "asset": {
    "extras": {
      "author": "Dominic Baker (https://sketchfab.com/Domuk)",
      "license": "CC-BY-4.0 (http://creativecommons.org/licenses/by/4.0/)",
      "source": "https://sketchfab.com/3d-models/beer-tankard-05943c8e0ca14c188f86e49d5657931a",
      "title": "beer tankard"
    },
    "generator": "Sketchfab-15.55.0",
    "version": "2.0"
  },
  "bufferViews": [
    {
      "buffer": 0,
      "byteLength": 17784,
      "name": "floatBufferViews",
      "target": 34963
    },
    {
      "buffer": 0,
      "byteLength": 26560,
      "byteOffset": 17784,
      "byteStride": 8,
      "name": "floatBufferViews",
      "target": 34962
    },
    {
      "buffer": 0,
      "byteLength": 39840,
      "byteOffset": 44344,
      "byteStride": 12,
      "name": "floatBufferViews",
      "target": 34962
    },
    {
      "buffer": 0,
      "byteLength": 19008,
      "byteOffset": 84184,
      "byteStride": 16,
      "name": "floatBufferViews",
      "target": 34962
    }
  ],
  "buffers": [
    {
      "byteLength": 103192,
      "uri": "scene.bin"
    }
  ],
  "images": [
    {
      "uri": "textures/Material.002_baseColor.jpeg"
    },
    {
      "uri": "textures/Material.002_normal.png"
    },
    {
      "uri": "textures/Material.003_baseColor.jpeg"
    },
    {
      "uri": "textures/Material.003_metallicRoughness.png"
    }
  ],
  "materials": [
    {
      "doubleSided": true,
      "name": "Material.002",
      "normalTexture": {
        "index": 1,
        "texCoord": 1
      },
      "pbrMetallicRoughness": {
        "baseColorTexture": {
          "index": 0
        },
        "metallicFactor": 0.0,
        "roughnessFactor": 0.1306535194595037
      }
    },
    {
      "doubleSided": true,
      "name": "Material.003",
      "pbrMetallicRoughness": {
        "baseColorTexture": {
          "index": 2
        },
        "metallicRoughnessTexture": {
          "index": 3
        }
      }
    }
  ],
  "meshes": [
    {
      "name": "Cylinder_Material.002_0",
      "primitives": [
        {
          "attributes": {
            "NORMAL": 1,
            "POSITION": 0,
            "TANGENT": 2,
            "TEXCOORD_0": 3,
            "TEXCOORD_1": 4
          },
          "indices": 5,
          "material": 0,
          "mode": 4
        }
      ]
    },
    {
      "name": "Cylinder_Material.003_0",
      "primitives": [
        {
          "attributes": {
            "NORMAL": 7,
            "POSITION": 6,
            "TEXCOORD_0": 8,
            "TEXCOORD_1": 9
          },
          "indices": 10,
          "material": 1,
          "mode": 4
        }
      ]
    }
  ],
  "nodes": [
    {
      "children": [
        1
      ],
      "matrix": [
        1.0,
        0.0,
        0.0,
        0.0,
        0.0,
        2.220446049250313e-16,
        -1.0,
        0.0,
        0.0,
        1.0,
        2.220446049250313e-16,
        0.0,
        0.0,
        0.0,
        0.0,
        1.0
      ],
      "name": "Sketchfab_model"
    },
    {
      "children": [
        2
      ],
      "matrix": [
        0.009999999776482582,
        0.0,
        0.0,
        0.0,
        0.0,
        0.0,
        0.009999999776482582,
        0.0,
        0.0,
        -0.009999999776482582,
        0.0,
        0.0,
        0.0,
        0.0,
        0.0,
        1.0
      ],
      "name": "a5344d97dc4c45a198a19151c13d72dd.fbx"
    },
    {
      "children": [
        3
      ],
      "name": "RootNode"
    },
    {
      "children": [
        4,
        5
      ],
      "matrix": [
        100.0,
        0.0,
        0.0,
        0.0,
        0.0,
        -1.629206793918314e-05,
        -99.99999999999868,
        0.0,
        0.0,
        99.99999999999868,
        -1.629206793918314e-05,
        0.0,
        0.0,
        0.0,
        0.0,
        1.0
      ],
      "name": "Cylinder"
    },
    {
      "mesh": 0,
      "name": "Cylinder_Material.002_0"
    },
    {
      "mesh": 1,
      "name": "Cylinder_Material.003_0"
    }
  ],
  "samplers": [
    {
      "magFilter": 9729,
      "minFilter": 9987,
      "wrapS": 10497,
      "wrapT": 10497
    }
  ],
  "scene": 0,
  "scenes": [
    {
      "name": "Sketchfab_Scene",
      "nodes": [
        0
      ]
    }
  ],
  "textures": [
    {
      "sampler": 0,
      "source": 0
    },
    {
      "sampler": 0,
      "source": 1
    },
    {
      "sampler": 0,
      "source": 2
    },
    {
      "sampler": 0,
      "source": 3
    }
  ]
}
